<svg xmlns="http://www.w3.org/2000/svg" xmlns:xlink="http://www.w3.org/1999/xlink" width="678" height="287" viewBox="0 0 678 287">
  <defs>
    <clipPath id="clip-Artboard_1">
      <rect width="678" height="287"/>
    </clipPath>
  </defs>
  <g id="Artboard_1" data-name="Artboard – 1" clip-path="url(#clip-Artboard_1)">
    <g id="Group_45" data-name="Group 45" transform="translate(-17.769 -9.877)">
      <path id="Path_55" data-name="Path 55" d="M359.428,578.13H168.648a38.07,38.07,0,0,1-37.987-37.987V349.36a38.069,38.069,0,0,1,37.987-37.984H359a38.069,38.069,0,0,1,37.985,37.984V539.719A37.536,37.536,0,0,1,359.428,578.13Z" transform="translate(-100.661 -291.376)" fill="#ff6000"/>
      <g id="Group_44" data-name="Group 44" transform="translate(77.005 50.553)">
        <path id="Path_56" data-name="Path 56" d="M219.4,389.92h43.107a3.3,3.3,0,0,0,3.413-2.989,3.26,3.26,0,0,0-.852-2.134,3.611,3.611,0,0,0-2.561-.852h-42.68a2.755,2.755,0,0,1-2.561-2.562,2.7,2.7,0,0,1,2.134-2.561H258.24a2.755,2.755,0,0,0,2.561-2.561,3.661,3.661,0,0,0-2.561-2.987l-41.828-4.268h-2.561a13.518,13.518,0,0,0-9.815,3.841l-11.525,9.388h-.425c-4.7,3.843-10.245,5.55-16.22,5.977h-9.391v8.109h9.391c5.975.427,11.949,2.134,16.645,5.974l11.525,9.391c3.413,2.561,7.681,4.267,11.949,3.84h.427l42.255-4.268A2.39,2.39,0,0,0,260.8,408.7c0-.852-.427-1.28-.855-2.134a3.258,3.258,0,0,0-2.134-.852H219.4a2.561,2.561,0,1,1,0-5.122h43.107a6.062,6.062,0,0,0,2.561-.855,3.25,3.25,0,0,0,.852-2.133,3.671,3.671,0,0,0-3.413-3.414h-42.68a2.752,2.752,0,0,1-2.561-2.561" transform="translate(-130.043 -264.476)" fill="#fff"/>
        <path id="Path_57" data-name="Path 57" d="M308.709,456.982c-4.693-.854-9.388,1.706-10.243,6.4-5.547,24.753-28.6,42.68-55.057,42.68-31.158,0-56.339-24.329-56.339-54.2s25.181-54.2,56.339-54.2c24.326,0,45.668,14.938,53.35,36.7a8.708,8.708,0,0,0,11.1,5.122c4.7-1.282,6.829-6.4,5.547-10.67-10.243-28.6-38.412-47.8-69.57-47.8a90.4,90.4,0,0,0-11.095.852l40.546-43.107c2.986-2.986,2.561-7.681-.427-10.67-2.989-2.561-8.109-2.561-10.67.428l-58.9,61.886,15.365-45.241a7.393,7.393,0,0,0-5.123-9.388c-3.841-1.282-8.536.852-9.815,4.693L176.4,421.556,167.863,384a7.666,7.666,0,0,0-14.938,3.416l18.354,78.533c0,.425.427.852.427,1.706l1.28,5.548a3.69,3.69,0,0,0,1.282,2.561c10.243,27.742,37.557,47.375,69.568,47.375,34.571,0,64.874-23.474,72.131-55.911A9.687,9.687,0,0,0,308.709,456.982Z" transform="translate(-148.501 -322.146)" fill="#fff"/>
        <path id="Path_58" data-name="Path 58" d="M310.31,463.585a6.886,6.886,0,0,1,2.989,1.707,3.514,3.514,0,0,1,.425,2.989c-6.827,30.3-35.423,52.5-67.861,52.5-29.451,0-55.486-17.924-65.3-44.813l-.427-.855a1.316,1.316,0,0,1-.427-.852l-20.058-85.789a3.214,3.214,0,0,1,.425-2.134,2.351,2.351,0,0,1,2.134-1.279,3.783,3.783,0,0,1,4.268,2.561l11.952,52.5,32.437-95.178c.427-1.71,2.561-2.561,4.268-2.134a4.243,4.243,0,0,1,2.134,1.707,1.9,1.9,0,0,1,0,2.134L195.5,410.66l71.7-76.4a4.471,4.471,0,0,1,5.12-.425,3.091,3.091,0,0,1,0,4.268l-49.082,52.5,12.377-1.707a97.492,97.492,0,0,1,10.67-.852c29.878,0,56.338,18.352,65.729,45.241a3.638,3.638,0,0,1,0,2.986,4.36,4.36,0,0,1-2.561,2.134,4.437,4.437,0,0,1-5.548-2.559c-8.536-23.476-31.585-39.694-57.193-39.694-33.289,0-60.606,26.035-60.606,58.473,0,32.01,27.317,58.472,60.606,58.472,28.169,0,53.352-19.206,59.327-46.1C305.614,464.437,307.749,463.157,310.31,463.585Zm-64.447,65.727c36.278,0,68.288-24.754,75.972-59.325.852-3.416,0-6.4-1.709-9.39a11.021,11.021,0,0,0-8.109-5.547,13.35,13.35,0,0,0-15.365,9.815c-5.12,22.622-26.463,39.267-50.789,39.267-28.6,0-52.07-22.195-52.07-49.936s23.474-49.509,52.07-49.509c22.192,0,42.253,13.659,49.082,33.717,2.134,6.4,9.816,10.245,16.22,7.684a14.323,14.323,0,0,0,7.681-6.4,12,12,0,0,0,.427-9.391c-10.243-30.73-40.121-51.216-73.838-51.216l32.865-35a10.123,10.123,0,0,0,2.986-8.536c0-2.989-1.707-5.975-3.841-8.109a12,12,0,0,0-16.645.852l-44.389,47.375,8.963-26.887a11.072,11.072,0,0,0-.852-8.963,10.363,10.363,0,0,0-7.256-5.975c-6.4-1.709-12.8,1.279-14.938,7.681l-22.195,67.008-5.548-23.047a11.8,11.8,0,0,0-14.086-8.963,13.738,13.738,0,0,0-7.681,5.122,12.013,12.013,0,0,0-1.709,8.536l20.06,85.787a29.371,29.371,0,0,0,1.282,3.413C183.547,509.678,213,529.311,245.863,529.311Z" transform="translate(-150.957 -324.482)" fill="#fff"/>
      </g>
      <g id="Group_43" data-name="Group 43" transform="translate(338.442 62.619)">
        <path id="Path_59" data-name="Path 59" d="M202.537,457.768a39.967,39.967,0,0,0-10.949,1.372,64.839,64.839,0,0,0-6.158,2.051,46.622,46.622,0,0,0-14.713,9.923,47.512,47.512,0,0,0-7.869,10.606,21.2,21.2,0,0,0-1.711,4.108,44.509,44.509,0,0,0,0,34.214,45.98,45.98,0,0,0,9.581,14.371,19.527,19.527,0,0,0,2.739,2.4,54.305,54.305,0,0,0,11.974,7.527,42.487,42.487,0,0,0,17.107,3.422,16.625,16.625,0,0,0,4.108-.343,46.312,46.312,0,0,0,9.92-2.054q1.543-.514,3.079-1.025a41.676,41.676,0,0,0,14.371-9.923,65.187,65.187,0,0,0,6.159-7.526l.343-.343c1.368-2.394,2.739-4.447,3.422-6.844a42.411,42.411,0,0,0,3.422-17.106,22.549,22.549,0,0,0-.343-4.791v-.343c-.343-1.368-.343-3.079-.683-4.447v-.343a44.521,44.521,0,0,0-2.4-7.184,44.053,44.053,0,0,0-9.58-14.371l-.683-.685-.686-.682-.343-.343-.343-.343a40.833,40.833,0,0,0-13-8.552,60.059,60.059,0,0,0-14.028-3.422A3.7,3.7,0,0,1,202.537,457.768Zm0,11.977h2.054a36.82,36.82,0,0,1,10.606,2.394,32.587,32.587,0,0,1,9.58,6.162l.686.682h.343l.34.343a27.009,27.009,0,0,1,6.844,10.605,16.91,16.91,0,0,1,1.368,4.447l.343,1.029c.343,1.026.343,2.051.686,3.079v.343c0,1.368.34,2.393.34,3.419a32.025,32.025,0,0,1-2.393,12.66q-1.028,2.057-2.054,4.108l-.683,1.025a34.65,34.65,0,0,1-4.45,5.476A36.32,36.32,0,0,1,215.54,532.7c-.686.343-1.368.343-2.054.686a59.885,59.885,0,0,1-7.527,1.711H202.88a32.039,32.039,0,0,1-12.659-2.4,34.709,34.709,0,0,1-8.895-5.473,8.986,8.986,0,0,0-2.054-1.711,32.283,32.283,0,0,1-7.184-10.609,33.209,33.209,0,0,1-2.4-12.66,32.049,32.049,0,0,1,2.4-12.659,20.082,20.082,0,0,1,1.368-2.736,31.2,31.2,0,0,1,5.816-7.87,36.379,36.379,0,0,1,10.606-7.183,16.929,16.929,0,0,1,4.447-1.371,66.926,66.926,0,0,1,8.212-.682" transform="translate(-73.735 -408.841)" fill="#000000"/>
        <path id="Path_60" data-name="Path 60" d="M197.247,524.78q-6.157-9.752-23.608-22.583c-9.923-7.184-15.4-11.631-17.107-13.342a36.5,36.5,0,0,1-6.844-8.9,19.143,19.143,0,0,1-1.711-8.553,16.607,16.607,0,0,1,5.476-12.659c3.422-3.422,8.212-5.133,13.685-5.133a22.006,22.006,0,0,1,11.977,3.422c2.736,1.711,5.473,4.448,8.895,8.212a5.911,5.911,0,0,0,8.212.683,6.132,6.132,0,0,0,1.025-8.9c-4.447-5.133-8.552-8.895-12.66-11.291a33.622,33.622,0,0,0-17.107-4.447,32.145,32.145,0,0,0-16.081,4.1,29.032,29.032,0,0,0-11.292,10.948,30.545,30.545,0,0,0-4.1,15.4c0,7.184,2.393,13.685,6.844,19.843,2.736,3.766,9.58,9.581,20.529,18.136,10.948,8.209,18.818,15.4,22.922,21.554,3.079,4.447,4.79,8.895,4.79,13.345a21.516,21.516,0,0,1-3.079,11.289,22.469,22.469,0,0,1-9.238,8.555,28,28,0,0,1-13,3.079c-9.238,0-17.45-5.473-24.976-16.764a6,6,0,0,0-7.869-2.054,6.09,6.09,0,0,0-2.054,8.212c4.447,6.841,9.237,12.317,14.37,15.4a39.876,39.876,0,0,0,21.554,6.5c10.266,0,19.161-3.422,26.348-10.606A32.663,32.663,0,0,0,203.749,543.6C203.749,537.782,201.355,531.281,197.247,524.78Z" transform="translate(-130.034 -440.953)" fill="#000000"/>
        <path id="Path_61" data-name="Path 61" d="M191.326,473.346v99.908a5.515,5.515,0,0,0,2.054,4.447,6.839,6.839,0,0,0,9.238,0,6.024,6.024,0,0,0,2.054-4.447V468.213a14.2,14.2,0,0,1,1.025-5.473,15.107,15.107,0,0,1,7.527-7.53,15.541,15.541,0,0,1,5.476-1.026,5.517,5.517,0,0,0,4.447-2.054,6.025,6.025,0,0,0,2.054-4.448,5.517,5.517,0,0,0-2.054-4.448,6.023,6.023,0,0,0-4.447-2.053,27.875,27.875,0,0,0-10.606,2.053,25.268,25.268,0,0,0-8.555,5.816,29.2,29.2,0,0,0-5.816,8.555,27.884,27.884,0,0,0-2.054,10.606v5.133Z" transform="translate(-5.387 -441.183)" fill="#000000"/>
        <path id="Path_62" data-name="Path 62" d="M194.6,470.205h16.082a5.515,5.515,0,0,0,4.447-2.054,6.833,6.833,0,0,0,0-9.238,6.024,6.024,0,0,0-4.447-2.054H194.6Z" transform="translate(1.265 -409.301)" fill="#000000"/>
        <path id="Path_63" data-name="Path 63" d="M290.064,515.25q-1.029,2.053-2.054,4.108l-.686,1.025a34.362,34.362,0,0,1-4.447,5.473,36.32,36.32,0,0,1-10.606,7.187c-.686.343-1.368.343-2.054.682a58.93,58.93,0,0,1-7.527,1.711h-3.079a32.041,32.041,0,0,1-12.66-2.393,34.72,34.72,0,0,1-8.9-5.476A9.124,9.124,0,0,0,236,525.857a32.321,32.321,0,0,1-7.187-10.606,33.2,33.2,0,0,1-2.394-12.659,32.049,32.049,0,0,1,2.394-12.66,20.638,20.638,0,0,1,1.368-2.736A31.127,31.127,0,0,1,236,479.326a36.329,36.329,0,0,1,10.606-7.187,16.985,16.985,0,0,1,4.447-1.368,33.235,33.235,0,0,1,7.869-1.025h2.054a36.821,36.821,0,0,1,10.606,2.394,32.591,32.591,0,0,1,9.58,6.162l.686.682h.34l.343.343a27.012,27.012,0,0,1,6.844,10.605,16.9,16.9,0,0,1,1.368,4.447l.343,1.029c.343,1.026.343,2.051.683,3.079v.343c0,1.368.343,2.393.343,3.419A27.473,27.473,0,0,1,290.064,515.25Zm14.367-12.659a22.766,22.766,0,0,0-.34-4.791v-.343c-.343-1.368-.343-3.079-.686-4.447v-.343a46.83,46.83,0,0,0-11.974-21.555l-.686-.685-.683-.682-.343-.343-.343-.343a40.88,40.88,0,0,0-13-8.552,59.985,59.985,0,0,0-14.028-3.422h-3.079a40.069,40.069,0,0,0-10.948,1.368,64.481,64.481,0,0,0-6.159,2.054,46.5,46.5,0,0,0-14.713,9.92,47.5,47.5,0,0,0-7.869,10.609,20.86,20.86,0,0,0-1.711,4.1,44.478,44.478,0,0,0,0,34.217,46,46,0,0,0,9.58,14.367,19.7,19.7,0,0,0,2.736,2.4,54.3,54.3,0,0,0,11.977,7.527,42.422,42.422,0,0,0,17.107,3.422,16.617,16.617,0,0,0,4.1-.343,46.34,46.34,0,0,0,9.923-2.05l3.079-1.028a41.631,41.631,0,0,0,14.371-9.92v6.841a5.518,5.518,0,0,0,2.054,4.448,6.834,6.834,0,0,0,9.238,0,6.025,6.025,0,0,0,2.054-4.448V504.3A2.579,2.579,0,0,0,304.432,502.592Z" transform="translate(41.633 -408.841)" fill="#000000"/>
        <path id="Path_64" data-name="Path 64" d="M203.958,502.934v38.321a5.507,5.507,0,0,0,2.054,4.447,6.838,6.838,0,0,0,9.237,0,6.019,6.019,0,0,0,2.051-4.447V484.116a14.164,14.164,0,0,1,1.029-5.476,15.127,15.127,0,0,1,7.526-7.527,15.475,15.475,0,0,1,5.473-1.025,5.526,5.526,0,0,0,4.45-2.053,6.021,6.021,0,0,0,2.051-4.448,5.513,5.513,0,0,0-2.051-4.447,6.017,6.017,0,0,0-4.45-2.054,27.83,27.83,0,0,0-10.606,2.054,25.21,25.21,0,0,0-8.552,5.815,29.063,29.063,0,0,0-5.819,8.555,27.875,27.875,0,0,0-2.051,10.606v18.818Z" transform="translate(20.302 -408.841)" fill="#000000"/>
        <g id="Group_12" data-name="Group 12" transform="translate(63.492 162.924)">
          <path id="Path_10" data-name="Path 10" d="M151.368,512.371v-10.7h-2.14v-1.713h2.14V499.1q0-3.853,3.85-3.853a6.081,6.081,0,0,1,2.569.856l-.856,1.284c-.428-.428-.856-.428-1.712-.428-1.281,0-2.138.856-2.138,2.569v.856h2.566V502.1H153.08v10.7h-1.713Z" transform="translate(-149.227 -494.822)" fill="#ff6000"/>
          <path id="Path_11" data-name="Path 11" d="M162.829,503.264c0-2.566-1.712-4.707-4.281-4.707s-4.281,2.141-4.281,4.707,1.712,4.709,4.281,4.709S162.829,505.832,162.829,503.264Zm-10.7,0a6.42,6.42,0,1,1,6.422,6.421A6.3,6.3,0,0,1,152.126,503.264Z" transform="translate(-143.567 -491.708)" fill="#ff6000"/>
          <path id="Path_12" data-name="Path 12" d="M157.49,509.257V496.845h2.141v2.14a5.27,5.27,0,0,1,4.281-2.14v2.14h-.856a3.813,3.813,0,0,0-3.425,2.141v8.987H157.49Z" transform="translate(-133.094 -491.708)" fill="#ff6000"/>
          <path id="Path_13" data-name="Path 13" d="M164.414,508.954V500.82h-2.14v-1.713h2.14v-3.422h2.141v3.422h2.569v1.713h-2.569v7.706c0,.856.428,1.712,1.284,1.712a4.311,4.311,0,0,0,1.284-.428l.428,1.282a3.619,3.619,0,0,1-2.569.856C165.271,511.948,164.414,511.092,164.414,508.954Z" transform="translate(-123.754 -493.971)" fill="#ff6000"/>
          <path id="Path_14" data-name="Path 14" d="M174.451,512.654v-8.131a2.7,2.7,0,0,0-2.994-3,5.426,5.426,0,0,0-3.853,1.713v8.987h-2.141V495.1H167.6v6.422a6.961,6.961,0,0,1,4.709-2.141c2.566,0,4.278,1.284,4.278,3.853V511.8h-2.141Z" transform="translate(-117.525 -495.105)" fill="#ff6000"/>
          <path id="Path_15" data-name="Path 15" d="M176.667,498.129a4.29,4.29,0,0,0-4.278,4.281h8.559A4.261,4.261,0,0,0,176.667,498.129Zm-6.419,5.135a6.3,6.3,0,0,1,6.419-6.419c3.853,0,5.993,3,5.993,6.846v.428H172.389a4.4,4.4,0,0,0,4.706,4.281,4.647,4.647,0,0,0,3.853-1.712l.856,1.284a6.823,6.823,0,0,1-5.137,1.712A6.066,6.066,0,0,1,170.248,503.264Z" transform="translate(-108.185 -491.708)" fill="#ff6000"/>
          <rect id="Rectangle_3" data-name="Rectangle 3" width="2.14" height="17.121" transform="translate(84.747 0.429)" fill="#ff6000"/>
          <path id="Path_16" data-name="Path 16" d="M190.371,503.264c0-2.566-1.712-4.707-4.281-4.707s-4.278,2.141-4.278,4.707,1.71,4.709,4.278,4.709C189.086,507.973,190.371,505.832,190.371,503.264Zm-10.7,0a6.42,6.42,0,1,1,6.418,6.421A6.3,6.3,0,0,1,179.671,503.264Z" transform="translate(-89.787 -491.708)" fill="#ff6000"/>
          <path id="Path_17" data-name="Path 17" d="M190.019,509.257l-5.564-12.412h2.14l4.28,10.272,4.28-10.272h2.14l-5.564,12.412Z" transform="translate(-80.446 -491.708)" fill="#ff6000"/>
          <path id="Path_18" data-name="Path 18" d="M195.377,498.129a4.29,4.29,0,0,0-4.281,4.281h8.559A4.261,4.261,0,0,0,195.377,498.129Zm-5.993,5.135a6.3,6.3,0,0,1,6.419-6.419c3.853,0,5.994,3,5.994,6.846v.428H191.525a4.4,4.4,0,0,0,4.706,4.281,4.648,4.648,0,0,0,3.853-1.712l.856,1.284a6.822,6.822,0,0,1-5.137,1.712A6.066,6.066,0,0,1,189.384,503.264Z" transform="translate(-70.823 -491.708)" fill="#ff6000"/>
          <path id="Path_19" data-name="Path 19" d="M207.48,503.264c0-2.566-1.712-4.707-4.281-4.707s-4.281,2.141-4.281,4.707,1.712,4.709,4.281,4.709S207.48,505.832,207.48,503.264Zm-10.7,0a6.422,6.422,0,1,1,6.421,6.421A6.3,6.3,0,0,1,196.777,503.264Z" transform="translate(-56.388 -491.708)" fill="#ff6000"/>
          <path id="Path_20" data-name="Path 20" d="M203.846,512.371v-10.7h-2.141v-1.713h2.141V499.1q0-3.853,3.853-3.853a6.08,6.08,0,0,1,2.569.856l-.856,1.284c-.428-.428-.856-.428-1.712-.428-1.284,0-2.141.856-2.141,2.569v.856h2.569V502.1h-2.569v10.7h-1.712Z" transform="translate(-46.764 -494.822)" fill="#ff6000"/>
          <path id="Path_21" data-name="Path 21" d="M208.629,512.371v-10.7h-2.138v-1.713h2.138V499.1q0-3.853,3.853-3.853a6.082,6.082,0,0,1,2.569.856l-.856,1.284c-.428-.428-.856-.428-1.712-.428-1.284,0-2.141.856-2.141,2.569v.856h2.569V502.1h-2.569v10.7h-1.712Z" transform="translate(-37.422 -494.822)" fill="#ff6000"/>
          <path id="Path_22" data-name="Path 22" d="M220.09,503.264c0-2.566-1.712-4.707-4.278-4.707s-4.281,2.141-4.281,4.707,1.712,4.709,4.281,4.709S220.09,505.832,220.09,503.264Zm-10.7,0a6.42,6.42,0,1,1,6.422,6.421A6.3,6.3,0,0,1,209.39,503.264Z" transform="translate(-31.762 -491.708)" fill="#ff6000"/>
          <path id="Path_23" data-name="Path 23" d="M225.309,503.264c0-2.566-1.712-4.707-4.281-4.707s-4.281,2.141-4.281,4.707,1.712,4.709,4.281,4.709S225.309,505.832,225.309,503.264Zm-10.7,0a6.42,6.42,0,1,1,6.419,6.421A6.056,6.056,0,0,1,214.609,503.264Z" transform="translate(-21.572 -491.708)" fill="#ff6000"/>
          <path id="Path_24" data-name="Path 24" d="M229.672,508.663V503.1a4.5,4.5,0,0,0-3.853-2.141c-2.566,0-4.278,2.141-4.278,4.709s1.712,4.706,4.278,4.706A3.457,3.457,0,0,0,229.672,508.663Zm0,3.425v-1.712a5.268,5.268,0,0,1-4.281,2.141c-3.422,0-5.562-2.569-5.562-6.421s2.569-6.419,5.563-6.419a5.27,5.27,0,0,1,4.281,2.141v-6.422h2.14v17.121h-2.14Z" transform="translate(-11.382 -494.539)" fill="#ff6000"/>
        </g>
      </g>
    </g>
  </g>
</svg>
