<?xml version="1.0" encoding="utf-8"?>
<!-- Generator: Adobe Illustrator 24.0.0, SVG Export Plug-In . SVG Version: 6.00 Build 0)  -->
<svg version="1.1" id="Layer_1" xmlns="http://www.w3.org/2000/svg" xmlns:xlink="http://www.w3.org/1999/xlink" x="0px" y="0px"
	 viewBox="0 0 67.61 78.3" style="enable-background:new 0 0 67.61 78.3;" xml:space="preserve">
<style type="text/css">
	.st0{fill-rule:evenodd;clip-rule:evenodd;fill:#7F2080;}
	.st1{fill-rule:evenodd;clip-rule:evenodd;fill:#FFFFFF;}
	.st2{fill:#FFFFFF;}
	.st3{fill-rule:evenodd;clip-rule:evenodd;fill:#B8CD00;}
	.st4{fill:#E5E5E5;}
	.st5{fill-rule:evenodd;clip-rule:evenodd;fill:#B7CD00;}
</style>
<g>
	<path class="st0" d="M37.31,55.93c-0.33,0-0.65,0-1.02-0.04C49.59,55.4,60.24,44.43,60.24,31c0-13.75-11.14-24.93-24.93-24.93
		c-13.42,0-24.39,10.65-24.88,23.95c0-0.33-0.04-0.65-0.04-1.02c0-14.85,12.03-26.88,26.88-26.88c14.85,0,26.88,12.04,26.88,26.88
		C64.15,43.85,52.16,55.93,37.31,55.93"/>
	<path class="st5" d="M32.25,0c0.33,0,0.69,0,1.02,0.04C19.61,0.57,8.67,11.83,8.67,25.66c0,14.16,11.46,25.62,25.62,25.62
		c13.83,0,25.09-10.93,25.62-24.64c0,0.33,0.04,0.69,0.04,1.02c0,15.26-12.4,27.66-27.66,27.66S4.64,42.92,4.64,27.66
		C4.59,12.4,17,0,32.25,0"/>
	<path class="st5" d="M5.61,17.34c-1.18,0-2.16-0.98-2.16-2.16c0-1.18,0.98-2.16,2.16-2.16h11.01l7.59,16.11h20.07l0.94-2.29H27.15
		v-0.65h18.32l1.22-2.9H25.73v-0.65h21.29l1.02-2.45H23.85c-1.14,0-2.08-0.98-2.08-2.16c0-1.18,0.94-2.16,2.08-2.16h27.54
		c1.14,0,2.08,0.98,2.08,2.16c0,0.41-0.12,0.78-0.29,1.1l-5.22,12.61c-0.04,0.29-0.16,0.53-0.33,0.78l-2.77,6.73
		c0.29,0.49,0.49,1.06,0.49,1.63c0,1.71-1.39,3.06-3.06,3.06c-1.71,0-3.06-1.39-3.06-3.06c0-0.29,0.04-0.53,0.08-0.77H26.17
		c0.08,0.29,0.12,0.53,0.12,0.86c0,1.71-1.39,3.06-3.06,3.06c-1.71,0-3.06-1.39-3.06-3.06c0-0.98,0.45-1.84,1.14-2.37
		c0-0.12-0.04-0.2-0.04-0.33c0-1.02,0.65-1.88,1.51-1.88h18.64l1.18-2.9H21.48L13.9,17.34H5.61z"/>
	<path class="st5" d="M44.65,6.65c-3.18-1.47-6.77-2.28-10.53-2.28C20.71,4.41,9.86,14.69,9.86,27.37c0,5.83,2.28,11.14,6.08,15.22
		v0.21c-4.12-4.12-6.65-9.67-6.65-15.79c0-12.69,10.85-22.97,24.27-22.97c4,0,7.75,0.9,11.1,2.53V6.65z"/>
	<path class="st5" d="M48.29,8.73c6.12,4.16,10.08,10.97,10.08,18.64c0,12.69-10.85,22.97-24.27,22.97c-4.73,0-9.18-1.31-12.93-3.51
		v-0.04c3.63,2.04,7.83,3.18,12.36,3.18c13.38,0,24.27-10.28,24.27-22.97C57.79,19.58,54.08,12.97,48.29,8.73"/>
	<path class="st5" d="M7.59,67.58c0-0.61-0.2-1.13-0.61-1.54c-0.4-0.44-0.93-0.65-1.49-0.65c-0.65,0-1.21,0.24-1.61,0.77
		c-0.32,0.4-0.49,0.89-0.49,1.41c0,0.61,0.2,1.13,0.61,1.54c0.4,0.44,0.93,0.65,1.54,0.65c0.61,0,1.09-0.2,1.49-0.65
		C7.39,68.67,7.59,68.14,7.59,67.58 M10.78,71.66c0,0.81-0.04,1.5-0.16,1.98c-0.2,0.81-0.65,1.54-1.41,2.18
		c-0.97,0.81-2.26,1.21-3.84,1.21c-1.7,0-3.03-0.45-4-1.33c-0.65-0.61-1.09-1.21-1.25-1.86c0-0.08-0.04-0.2-0.08-0.44H3.8
		c0.12,0.32,0.24,0.52,0.45,0.65c0.28,0.2,0.69,0.32,1.13,0.32c0.77,0,1.37-0.28,1.78-0.81c0.24-0.32,0.4-0.85,0.4-1.49v-0.89
		c-0.4,0.36-0.73,0.65-1.01,0.77c-0.57,0.32-1.21,0.48-1.98,0.48c-0.97,0-1.82-0.24-2.58-0.73c-0.77-0.52-1.33-1.21-1.66-2.06
		C0.08,69.03,0,68.39,0,67.7c0-1.54,0.49-2.79,1.45-3.76c0.93-0.89,2.02-1.33,3.27-1.33c0.69,0,1.29,0.12,1.82,0.4
		c0.32,0.16,0.65,0.44,1.01,0.85v-0.97h3.35v8.76H10.78z"/>
	<path class="st5" d="M19.43,67.58c0-0.61-0.2-1.13-0.65-1.53c-0.44-0.44-0.93-0.65-1.53-0.65c-0.69,0-1.25,0.24-1.7,0.77
		c-0.36,0.4-0.52,0.89-0.52,1.41c0,0.53,0.16,1.01,0.52,1.41c0.45,0.52,1.01,0.77,1.7,0.77c0.61,0,1.13-0.2,1.53-0.65
		C19.22,68.75,19.43,68.23,19.43,67.58 M22.9,67.58c0,1.29-0.44,2.42-1.29,3.35c-1.05,1.13-2.5,1.7-4.36,1.7
		c-1.9,0-3.35-0.57-4.36-1.7c-0.85-0.93-1.29-2.1-1.29-3.43c0-1.21,0.44-2.3,1.29-3.27c1.05-1.13,2.54-1.7,4.48-1.7
		c1.78,0,3.19,0.57,4.24,1.7C22.5,65.2,22.9,66.29,22.9,67.58"/>
	<path class="st0" d="M39.7,72.3h-3.35v-4.64c0-0.81-0.08-1.37-0.24-1.66c-0.24-0.44-0.65-0.65-1.13-0.65
		c-0.57,0-0.97,0.24-1.29,0.73c-0.2,0.32-0.32,0.89-0.32,1.62v4.64h-3.35V67.7c0-0.81-0.08-1.33-0.2-1.58
		c-0.28-0.48-0.69-0.73-1.25-0.73c-0.52,0-0.93,0.2-1.21,0.65c-0.12,0.16-0.2,0.36-0.24,0.61c-0.04,0.24-0.08,0.61-0.08,1.05v4.64
		h-3.35v-9.41h3.35v1.17c0.4-0.36,0.77-0.65,1.09-0.85c0.61-0.32,1.25-0.48,1.98-0.48c0.93,0,1.7,0.24,2.34,0.69
		c0.32,0.24,0.61,0.61,0.89,1.05c0.24-0.4,0.52-0.77,0.85-1.01c0.69-0.52,1.45-0.77,2.3-0.77c0.69,0,1.33,0.16,1.9,0.52
		c0.61,0.36,0.97,0.89,1.17,1.49c0.12,0.4,0.16,0.85,0.16,1.45V72.3z"/>
	<path class="st0" d="M48.22,67.58c0-0.61-0.2-1.09-0.61-1.49c-0.4-0.4-0.93-0.61-1.49-0.61c-0.65,0-1.21,0.24-1.61,0.77
		c-0.32,0.4-0.52,0.85-0.52,1.37c0,0.53,0.16,0.97,0.52,1.37c0.4,0.48,0.97,0.77,1.61,0.77c0.61,0,1.09-0.2,1.49-0.61
		C48.02,68.71,48.22,68.19,48.22,67.58 M51.45,72.3H48.1v-1.05c-0.32,0.4-0.65,0.69-0.97,0.89c-0.57,0.32-1.21,0.48-1.94,0.48
		c-1.17,0-2.22-0.4-3.11-1.21c-1.09-0.97-1.61-2.22-1.61-3.8c0-1.61,0.57-2.91,1.66-3.84c0.89-0.77,1.9-1.13,3.03-1.13
		c0.69,0,1.29,0.12,1.9,0.4c0.32,0.16,0.69,0.45,1.05,0.81v-0.93h3.35V72.3z"/>
	<path class="st0" d="M59.73,65.96c-0.44-0.24-0.93-0.32-1.41-0.32c-1.09,0-1.82,0.44-2.1,1.33c-0.12,0.32-0.2,0.77-0.2,1.29v4
		h-3.35v-9.41h3.35v1.58c0.36-0.57,0.73-0.93,1.13-1.21c0.52-0.32,1.21-0.48,1.94-0.48c0.16,0,0.4,0,0.65,0.04V65.96z"/>
	<polygon class="st0" points="67.61,65.6 65.71,65.6 65.71,72.31 62.36,72.31 62.36,65.6 61.27,65.6 61.27,62.89 62.36,62.89 
		62.36,60.07 65.71,60.07 65.71,62.89 67.61,62.89 	"/>
	<path class="st4" d="M23.94,77.15c0.18,0.1,0.43,0.17,0.71,0.17c0.6,0,0.94-0.31,0.94-0.76c0-0.38-0.22-0.59-0.66-0.76
		c-0.33-0.12-0.48-0.22-0.48-0.43c0-0.19,0.15-0.34,0.42-0.34c0.23,0,0.42,0.08,0.52,0.15l0.11-0.33c-0.14-0.08-0.36-0.16-0.62-0.16
		c-0.54,0-0.87,0.33-0.87,0.74c0,0.3,0.21,0.55,0.67,0.71c0.34,0.12,0.47,0.24,0.47,0.46c0,0.21-0.16,0.37-0.49,0.37
		c-0.23,0-0.47-0.09-0.6-0.18L23.94,77.15z"/>
	<path class="st4" d="M26.44,75.77c0.04-0.32,0.24-0.74,0.7-0.74c0.52,0,0.64,0.45,0.64,0.74H26.44z M28.2,76.1
		c0-0.05,0.02-0.12,0.02-0.21c0-0.46-0.22-1.19-1.04-1.19c-0.73,0-1.18,0.6-1.18,1.36c0,0.76,0.46,1.27,1.24,1.27
		c0.4,0,0.68-0.08,0.84-0.16l-0.08-0.33c-0.17,0.07-0.37,0.13-0.7,0.13c-0.46,0-0.85-0.26-0.86-0.87H28.2z"/>
	<path class="st4" d="M29.04,75.77c0.04-0.32,0.24-0.74,0.7-0.74c0.52,0,0.64,0.45,0.64,0.74H29.04z M30.81,76.1
		c0-0.05,0.02-0.12,0.02-0.21c0-0.46-0.22-1.19-1.04-1.19c-0.73,0-1.18,0.6-1.18,1.36c0,0.76,0.46,1.27,1.24,1.27
		c0.4,0,0.68-0.08,0.84-0.16l-0.08-0.33c-0.17,0.07-0.37,0.13-0.7,0.13c-0.46,0-0.85-0.26-0.86-0.87H30.81z"/>
	<path class="st4" d="M31.36,77.88c0.15-0.24,0.38-0.82,0.49-1.26l-0.51,0.05c-0.06,0.38-0.2,0.94-0.31,1.24L31.36,77.88z"/>
	<path class="st4" d="M33.33,77.15c0.18,0.1,0.43,0.17,0.71,0.17c0.6,0,0.94-0.31,0.94-0.76c0-0.38-0.22-0.59-0.66-0.76
		c-0.33-0.12-0.48-0.22-0.48-0.43c0-0.19,0.15-0.34,0.42-0.34c0.23,0,0.42,0.08,0.52,0.15l0.11-0.33c-0.14-0.08-0.36-0.16-0.62-0.16
		c-0.54,0-0.87,0.33-0.87,0.74c0,0.3,0.21,0.55,0.67,0.71c0.34,0.12,0.47,0.24,0.47,0.46c0,0.21-0.16,0.37-0.49,0.37
		c-0.23,0-0.47-0.09-0.6-0.18L33.33,77.15z"/>
	<path class="st4" d="M35.83,75.77c0.04-0.32,0.24-0.74,0.7-0.74c0.52,0,0.64,0.45,0.64,0.74H35.83z M37.59,76.1
		c0-0.05,0.02-0.12,0.02-0.21c0-0.46-0.22-1.19-1.04-1.19c-0.73,0-1.18,0.6-1.18,1.36c0,0.76,0.46,1.27,1.24,1.27
		c0.4,0,0.68-0.08,0.84-0.16l-0.08-0.33c-0.17,0.07-0.37,0.13-0.7,0.13c-0.46,0-0.85-0.26-0.86-0.87H37.59z"/>
	<rect x="38.18" y="73.58" class="st4" width="0.46" height="3.7"/>
	<path class="st4" d="M39.67,75.77c0.04-0.32,0.24-0.74,0.7-0.74c0.52,0,0.64,0.45,0.64,0.74H39.67z M41.43,76.1
		c0-0.05,0.02-0.12,0.02-0.21c0-0.46-0.22-1.19-1.04-1.19c-0.73,0-1.18,0.6-1.18,1.36c0,0.76,0.46,1.27,1.24,1.27
		c0.4,0,0.68-0.08,0.84-0.16l-0.08-0.33c-0.17,0.07-0.37,0.13-0.7,0.13c-0.46,0-0.85-0.26-0.86-0.87H41.43z"/>
	<path class="st4" d="M43.73,76.84c-0.13,0.06-0.3,0.12-0.56,0.12c-0.5,0-0.88-0.36-0.88-0.94c0-0.53,0.31-0.95,0.89-0.95
		c0.25,0,0.42,0.06,0.53,0.12l0.1-0.35c-0.12-0.06-0.36-0.13-0.63-0.13c-0.82,0-1.35,0.56-1.35,1.34c0,0.77,0.49,1.29,1.25,1.29
		c0.34,0,0.6-0.08,0.72-0.14L43.73,76.84z"/>
	<path class="st4" d="M44.52,74.15v0.6h-0.39v0.35h0.39v1.37c0,0.3,0.05,0.52,0.18,0.65c0.11,0.12,0.28,0.19,0.49,0.19
		c0.18,0,0.32-0.03,0.41-0.06l-0.02-0.34c-0.06,0.02-0.15,0.03-0.27,0.03c-0.26,0-0.34-0.18-0.34-0.49V75.1h0.66v-0.35h-0.66v-0.72
		L44.52,74.15z"/>
	<path class="st4" d="M46.15,77.88c0.15-0.24,0.38-0.82,0.49-1.26l-0.51,0.05c-0.06,0.38-0.2,0.94-0.31,1.24L46.15,77.88z"/>
	<path class="st4" d="M48.75,75.82c0-0.06,0.02-0.13,0.03-0.19c0.09-0.34,0.38-0.57,0.69-0.57c0.48,0,0.75,0.43,0.75,0.94
		c0,0.58-0.28,0.97-0.76,0.97c-0.33,0-0.6-0.22-0.69-0.54c-0.01-0.06-0.02-0.12-0.02-0.19V75.82z M48.3,78.3h0.45v-1.37h0.01
		c0.15,0.25,0.44,0.4,0.77,0.4c0.59,0,1.15-0.45,1.15-1.35c0-0.76-0.46-1.28-1.07-1.28c-0.41,0-0.71,0.18-0.89,0.49h-0.01
		l-0.02-0.43h-0.41c0.01,0.24,0.02,0.5,0.02,0.82V78.3z"/>
	<path class="st4" d="M53.37,74.75h-0.46v1.55c0,0.08-0.02,0.17-0.04,0.24c-0.08,0.2-0.3,0.42-0.6,0.42c-0.42,0-0.56-0.32-0.56-0.8
		v-1.4h-0.46v1.47c0,0.88,0.47,1.1,0.87,1.1c0.45,0,0.71-0.27,0.83-0.47h0.01l0.03,0.41h0.41c-0.02-0.2-0.02-0.43-0.02-0.69V74.75z"
		/>
	<path class="st4" d="M54.13,77.27h0.45v-1.34c0-0.08,0.01-0.15,0.02-0.21c0.06-0.34,0.29-0.59,0.61-0.59
		c0.06,0,0.11,0.01,0.16,0.02v-0.43c-0.04-0.01-0.08-0.02-0.13-0.02c-0.31,0-0.58,0.21-0.7,0.55h-0.02l-0.02-0.49h-0.4
		c0.02,0.23,0.02,0.49,0.02,0.79V77.27z"/>
	<path class="st4" d="M57.5,76.84c-0.13,0.06-0.3,0.12-0.56,0.12c-0.5,0-0.88-0.36-0.88-0.94c0-0.53,0.31-0.95,0.89-0.95
		c0.25,0,0.42,0.06,0.53,0.12l0.1-0.35c-0.12-0.06-0.36-0.13-0.63-0.13c-0.82,0-1.35,0.56-1.35,1.34c0,0.77,0.49,1.29,1.25,1.29
		c0.34,0,0.6-0.08,0.72-0.14L57.5,76.84z"/>
	<path class="st4" d="M58.11,77.27h0.46v-1.52c0-0.09,0.01-0.16,0.03-0.22c0.08-0.25,0.32-0.46,0.61-0.46
		c0.43,0,0.58,0.34,0.58,0.75v1.45h0.46v-1.5c0-0.87-0.54-1.08-0.88-1.08c-0.17,0-0.33,0.05-0.47,0.13
		c-0.14,0.08-0.26,0.19-0.33,0.32h-0.01v-1.57h-0.46V77.27z"/>
	<path class="st4" d="M62.32,76.42c0,0.05-0.01,0.1-0.03,0.15c-0.07,0.21-0.28,0.42-0.61,0.42c-0.23,0-0.43-0.14-0.43-0.44
		c0-0.49,0.57-0.58,1.07-0.57V76.42z M62.81,77.27c-0.03-0.17-0.04-0.38-0.04-0.6v-0.94c0-0.51-0.19-1.03-0.96-1.03
		c-0.32,0-0.62,0.09-0.83,0.22l0.1,0.3c0.18-0.11,0.42-0.19,0.66-0.19c0.52,0,0.57,0.38,0.57,0.58v0.05c-0.97,0-1.51,0.33-1.51,0.94
		c0,0.36,0.26,0.72,0.77,0.72c0.36,0,0.63-0.18,0.77-0.38h0.02l0.04,0.32H62.81z"/>
	<path class="st4" d="M63.33,77.15c0.18,0.1,0.43,0.17,0.71,0.17c0.6,0,0.94-0.31,0.94-0.76c0-0.38-0.22-0.59-0.66-0.76
		c-0.33-0.12-0.48-0.22-0.48-0.43c0-0.19,0.15-0.34,0.42-0.34c0.23,0,0.42,0.08,0.52,0.15l0.11-0.33c-0.14-0.08-0.36-0.16-0.62-0.16
		c-0.54,0-0.87,0.33-0.87,0.74c0,0.3,0.21,0.55,0.67,0.71c0.34,0.12,0.47,0.24,0.47,0.46c0,0.21-0.16,0.37-0.49,0.37
		c-0.23,0-0.47-0.09-0.6-0.18L63.33,77.15z"/>
	<path class="st4" d="M65.83,75.77c0.04-0.32,0.24-0.74,0.7-0.74c0.52,0,0.64,0.45,0.64,0.74H65.83z M67.59,76.1
		c0-0.05,0.02-0.12,0.02-0.21c0-0.46-0.22-1.19-1.04-1.19c-0.73,0-1.18,0.6-1.18,1.36c0,0.76,0.46,1.27,1.24,1.27
		c0.4,0,0.68-0.08,0.84-0.16l-0.08-0.33c-0.17,0.07-0.37,0.13-0.7,0.13c-0.46,0-0.85-0.26-0.86-0.87H67.59z"/>
</g>
</svg>
