<?xml version="1.0" encoding="UTF-8" standalone="no"?>
<svg
   width="257"
   height="40"
   viewBox="0 0 257 40"
   fill="none"
   version="1.1"
   id="svg49"
   sodipodi:docname="Frame 2297.svg"
   inkscape:version="1.2.1 (9c6d41e410, 2022-07-14)"
   xmlns:inkscape="http://www.inkscape.org/namespaces/inkscape"
   xmlns:sodipodi="http://sodipodi.sourceforge.net/DTD/sodipodi-0.dtd"
   xmlns="http://www.w3.org/2000/svg"
   xmlns:svg="http://www.w3.org/2000/svg">
  <sodipodi:namedview
     id="namedview51"
     pagecolor="#ffffff"
     bordercolor="#000000"
     borderopacity="0.25"
     inkscape:showpageshadow="2"
     inkscape:pageopacity="0.0"
     inkscape:pagecheckerboard="0"
     inkscape:deskcolor="#d1d1d1"
     showgrid="false"
     inkscape:zoom="4.7081712"
     inkscape:cx="128.6062"
     inkscape:cy="19.965289"
     inkscape:window-width="1366"
     inkscape:window-height="697"
     inkscape:window-x="-8"
     inkscape:window-y="-8"
     inkscape:window-maximized="1"
     inkscape:current-layer="svg49" />
  <g
     clip-path="url(#clip0_1609_2613)"
     id="g42">
    <path
       d="M63.4023 4.48407C62.0679 3.07066 60.4593 1.94408 58.6749 1.17312C56.8905 0.402154 54.9676 0.0029907 53.0238 0L45.9584 0C44.0143 0.00143181 42.091 0.399889 40.3063 1.17095C38.5217 1.942 36.9133 3.06941 35.5798 4.48407L11.8821 29.6853C11.2319 30.3501 10.4495 30.8712 9.58552 31.215C8.7215 31.5587 7.795 31.7176 6.86581 31.6812H0V39.6647H34.2359C36.1778 39.6615 38.0986 39.2621 39.8808 38.4911C41.663 37.7201 43.2692 36.5937 44.6012 35.1806L53.4097 25.8666C54.0013 25.2396 54.7149 24.7403 55.5066 24.3994C56.2983 24.0584 57.1515 23.883 58.0135 23.884H67.8598C68.7216 23.8846 69.5742 24.0607 70.3657 24.4015C71.1572 24.7424 71.871 25.2409 72.4636 25.8666L81.2588 35.1806C82.5942 36.5928 84.203 37.7186 85.9872 38.4894C87.7714 39.2603 89.6937 39.6602 91.6373 39.6647H98.9556V31.6812H91.7039C90.841 31.6797 89.9875 31.5019 89.1959 31.1586C88.4042 30.8154 87.691 30.3141 87.1 29.6853L81.5249 23.7642H99.0088V15.8473H74.0736L63.4023 4.48407ZM58.08 15.8473C56.1359 15.8487 54.2126 16.2471 52.428 17.0182C50.6433 17.7893 49.0349 18.9167 47.7014 20.3313L38.9063 29.6454C38.3139 30.2723 37.6004 30.7724 36.8091 31.1155C36.0177 31.4586 35.165 31.6374 34.3025 31.6413H20.9966L41.3413 9.91285C41.9413 9.29702 42.6596 8.8087 43.453 8.47717C44.2464 8.14564 45.0985 7.97773 45.9584 7.9835H53.0238C53.8867 7.98503 54.7401 8.16286 55.5318 8.50607C56.3235 8.84928 57.0367 9.35064 57.6276 9.97938L63.2028 15.9138L58.08 15.8473Z"
       fill="#FF2F00"
       id="path2" />
    <path
       d="M123.835 39.6647V23.8961H130.21C131.202 23.8961 132.073 24.0913 132.824 24.4818C133.574 24.8722 134.168 25.4279 134.603 26.1487C135.039 26.8546 135.256 27.6956 135.256 28.6717V28.9871C135.256 29.9482 135.031 30.7892 134.581 31.5101C134.145 32.2309 133.544 32.7866 132.778 33.177C132.028 33.5675 131.172 33.7627 130.21 33.7627H126.561V39.6647H123.835ZM126.561 31.3073H129.94C130.721 31.3073 131.344 31.0971 131.81 30.6766C132.29 30.2561 132.531 29.6779 132.531 28.942V28.7168C132.531 27.9809 132.298 27.4027 131.832 26.9822C131.367 26.5617 130.736 26.3515 129.94 26.3515H126.561V31.3073Z"
       fill="#000000"
       id="path8" />
    <path
       d="M141.855 39.9801C140.744 39.9801 139.76 39.7473 138.904 39.2818C138.063 38.8012 137.403 38.1329 136.922 37.2769C136.457 36.4059 136.224 35.3922 136.224 34.2358V33.9655C136.224 32.7941 136.457 31.7804 136.922 30.9244C137.388 30.0684 138.041 29.4076 138.882 28.942C139.723 28.4615 140.692 28.2212 141.788 28.2212C142.869 28.2212 143.815 28.4615 144.626 28.942C145.437 29.4076 146.068 30.0684 146.518 30.9244C146.969 31.7804 147.194 32.7791 147.194 33.9204V34.844H138.837C138.867 35.715 139.175 36.4134 139.76 36.939C140.346 37.4646 141.067 37.7274 141.923 37.7274C142.764 37.7274 143.387 37.5472 143.793 37.1868C144.198 36.8113 144.506 36.3908 144.716 35.9253L146.856 37.0291C146.646 37.4346 146.338 37.8701 145.933 38.3356C145.542 38.7862 145.017 39.1766 144.356 39.507C143.695 39.8224 142.862 39.9801 141.855 39.9801ZM138.859 32.8842H144.559C144.499 32.1483 144.213 31.5626 143.703 31.1271C143.207 30.6916 142.561 30.4738 141.765 30.4738C140.939 30.4738 140.279 30.6916 139.783 31.1271C139.287 31.5626 138.98 32.1483 138.859 32.8842Z"
       fill="#000000"
       id="path10" />
    <path
       d="M149.405 39.6647V28.5366H151.951V29.8206H152.334C152.499 29.355 152.777 29.0171 153.167 28.8069C153.558 28.5966 154.023 28.4915 154.564 28.4915H155.916V30.7892H154.519C153.768 30.7892 153.16 30.992 152.694 31.3974C152.229 31.7879 151.996 32.3961 151.996 33.2221V39.6647H149.405Z"
       fill="#000000"
       id="path12" />
    <path
       d="M159.694 39.6647V30.6766H156.72V28.5366H159.694V26.2839C159.694 25.548 159.904 24.9698 160.325 24.5493C160.76 24.1138 161.331 23.8961 162.037 23.8961H164.92V26.0361H162.893C162.472 26.0361 162.262 26.2614 162.262 26.7119V28.5366H165.325V30.6766H162.262V39.6647H159.694Z"
       fill="#000000"
       id="path14" />
    <path
       d="M172.017 39.9801C170.906 39.9801 169.907 39.7548 169.021 39.3043C168.15 38.8387 167.459 38.1855 166.948 37.3445C166.453 36.4885 166.205 35.4673 166.205 34.2808V33.9204C166.205 32.734 166.453 31.7128 166.948 30.8568C167.459 30.0008 168.15 29.3475 169.021 28.897C169.907 28.4464 170.906 28.2212 172.017 28.2212C173.128 28.2212 174.119 28.4464 174.99 28.897C175.861 29.3475 176.545 30.0008 177.04 30.8568C177.551 31.7128 177.806 32.734 177.806 33.9204V34.2808C177.806 35.4673 177.551 36.4885 177.04 37.3445C176.545 38.1855 175.861 38.8387 174.99 39.3043C174.119 39.7548 173.128 39.9801 172.017 39.9801ZM172.017 37.6824C172.963 37.6824 173.736 37.382 174.337 36.7813C174.938 36.1656 175.238 35.3096 175.238 34.2133V33.988C175.238 32.8917 174.938 32.0432 174.337 31.4425C173.736 30.8268 172.963 30.5189 172.017 30.5189C171.071 30.5189 170.297 30.8268 169.697 31.4425C169.096 32.0432 168.796 32.8917 168.796 33.988V34.2133C168.796 35.3096 169.096 36.1656 169.697 36.7813C170.297 37.382 171.071 37.6824 172.017 37.6824Z"
       fill="#000000"
       id="path16" />
    <path
       d="M180.113 39.6647V28.5366H182.658V29.8206H183.041C183.206 29.355 183.484 29.0171 183.875 28.8069C184.265 28.5966 184.731 28.4915 185.271 28.4915H186.623V30.7892H185.226C184.475 30.7892 183.867 30.992 183.401 31.3974C182.936 31.7879 182.703 32.3961 182.703 33.2221V39.6647H180.113Z"
       fill="#000000"
       id="path18" />
    <path
       d="M188.464 39.6647V28.5366H191.009V29.7755H191.392C191.587 29.4001 191.91 29.0697 192.361 28.7843C192.826 28.484 193.442 28.3338 194.208 28.3338C195.019 28.3338 195.672 28.499 196.168 28.8294C196.663 29.1598 197.039 29.5803 197.294 30.0909H197.655C197.91 29.5803 198.278 29.1598 198.758 28.8294C199.239 28.499 199.922 28.3338 200.808 28.3338C201.499 28.3338 202.122 28.484 202.678 28.7843C203.249 29.0847 203.699 29.5277 204.03 30.1134C204.375 30.6991 204.548 31.4275 204.548 32.2985V39.6647H201.957V32.4787C201.957 31.833 201.785 31.3449 201.439 31.0145C201.094 30.6691 200.613 30.4964 199.997 30.4964C199.322 30.4964 198.781 30.7216 198.375 31.1722C197.985 31.6077 197.79 32.2384 197.79 33.0644V39.6647H195.222V32.4787C195.222 31.833 195.049 31.3449 194.704 31.0145C194.358 30.6691 193.878 30.4964 193.262 30.4964C192.571 30.4964 192.03 30.7216 191.64 31.1722C191.25 31.6077 191.054 32.2384 191.054 33.0644V39.6647H188.464Z"
       fill="#000000"
       id="path20" />
    <path
       d="M210.733 39.9801C209.952 39.9801 209.246 39.8449 208.615 39.5746C207.985 39.2893 207.482 38.8838 207.106 38.3582C206.746 37.8326 206.565 37.1868 206.565 36.4209C206.565 35.67 206.746 35.0392 207.106 34.5286C207.482 34.018 207.992 33.6351 208.638 33.3798C209.284 33.1095 210.02 32.9743 210.846 32.9743H214.067V32.2985C214.067 31.7128 213.887 31.2398 213.526 30.8793C213.166 30.5039 212.603 30.3162 211.837 30.3162C211.086 30.3162 210.515 30.4964 210.125 30.8568C209.749 31.2022 209.501 31.6527 209.381 32.2084L206.993 31.42C207.174 30.8343 207.459 30.3011 207.849 29.8206C208.255 29.34 208.788 28.9571 209.449 28.6717C210.11 28.3714 210.921 28.2212 211.882 28.2212C213.338 28.2212 214.48 28.5891 215.306 29.325C216.147 30.0458 216.567 31.0971 216.567 32.4787V36.8489C216.567 37.2994 216.778 37.5247 217.198 37.5247H218.144V39.6647H216.319C215.779 39.6647 215.336 39.5296 214.99 39.2592C214.645 38.9889 214.472 38.621 214.472 38.1554V38.1104H214.089C213.999 38.3206 213.842 38.5759 213.616 38.8763C213.391 39.1766 213.046 39.4395 212.58 39.6647C212.13 39.875 211.514 39.9801 210.733 39.9801ZM211.161 37.8626C212.017 37.8626 212.715 37.6223 213.256 37.1417C213.797 36.6461 214.067 35.9854 214.067 35.1594V34.9341H211.003C210.448 34.9341 209.997 35.0543 209.652 35.2945C209.306 35.5348 209.133 35.8877 209.133 36.3533C209.133 36.8038 209.314 37.1718 209.674 37.4571C210.035 37.7274 210.53 37.8626 211.161 37.8626Z"
       fill="#000000"
       id="path22" />
    <path
       d="M219.839 39.6647V28.5366H222.385V30.0909H222.768C222.963 29.6704 223.316 29.2724 223.826 28.897C224.337 28.5215 225.11 28.3338 226.147 28.3338C227.003 28.3338 227.761 28.529 228.422 28.9195C229.083 29.31 229.593 29.8506 229.954 30.5414C230.329 31.2322 230.517 32.0507 230.517 32.9968V39.6647H227.926V33.1996C227.926 32.2985 227.701 31.6302 227.251 31.1947C226.815 30.7442 226.192 30.5189 225.381 30.5189C224.465 30.5189 223.744 30.8268 223.218 31.4425C222.693 32.0432 222.43 32.9067 222.43 34.0331V39.6647H219.839Z"
       fill="#000000"
       id="path24" />
    <path
       d="M238.454 39.9801C237.373 39.9801 236.396 39.7548 235.525 39.3043C234.654 38.8538 233.963 38.2005 233.453 37.3445C232.957 36.4885 232.709 35.4597 232.709 34.2583V33.943C232.709 32.7415 232.957 31.7128 233.453 30.8568C233.963 30.0008 234.654 29.3475 235.525 28.897C236.396 28.4464 237.373 28.2212 238.454 28.2212C239.52 28.2212 240.429 28.4089 241.18 28.7843C241.945 29.1598 242.561 29.6779 243.027 30.3387C243.492 30.9844 243.793 31.7128 243.928 32.5238L241.427 33.0419C241.367 32.5763 241.225 32.1558 240.999 31.7804C240.774 31.3899 240.451 31.0821 240.031 30.8568C239.625 30.6315 239.122 30.5189 238.521 30.5189C237.906 30.5189 237.35 30.6541 236.854 30.9244C236.374 31.1797 235.991 31.5701 235.706 32.0958C235.435 32.6214 235.3 33.2521 235.3 33.988V34.2133C235.3 34.9491 235.435 35.5799 235.706 36.1055C235.991 36.6161 236.374 37.0066 236.854 37.2769C237.35 37.5472 237.906 37.6824 238.521 37.6824C239.437 37.6824 240.128 37.4496 240.594 36.984C241.074 36.5035 241.375 35.8877 241.495 35.1369L243.995 35.7226C243.815 36.5035 243.492 37.2168 243.027 37.8626C242.561 38.5083 241.945 39.0265 241.18 39.4169C240.429 39.7924 239.52 39.9801 238.454 39.9801Z"
       fill="#000000"
       id="path26" />
    <path
       d="M251.158 39.9801C250.047 39.9801 249.063 39.7473 248.207 39.2818C247.366 38.8012 246.705 38.1329 246.225 37.2769C245.759 36.4059 245.526 35.3922 245.526 34.2358V33.9655C245.526 32.7941 245.759 31.7804 246.225 30.9244C246.69 30.0684 247.344 29.4076 248.185 28.942C249.026 28.4615 249.994 28.2212 251.09 28.2212C252.172 28.2212 253.118 28.4615 253.929 28.942C254.74 29.4076 255.371 30.0684 255.821 30.9244C256.272 31.7804 256.497 32.7791 256.497 33.9204V34.844H248.14C248.17 35.715 248.477 36.4134 249.063 36.939C249.649 37.4646 250.37 37.7274 251.226 37.7274C252.067 37.7274 252.69 37.5472 253.095 37.1868C253.501 36.8113 253.809 36.3908 254.019 35.9253L256.159 37.0291C255.949 37.4346 255.641 37.8701 255.235 38.3356C254.845 38.7862 254.319 39.1766 253.659 39.507C252.998 39.8224 252.164 39.9801 251.158 39.9801ZM248.162 32.8842H253.861C253.801 32.1483 253.516 31.5626 253.005 31.1271C252.51 30.6916 251.864 30.4738 251.068 30.4738C250.242 30.4738 249.581 30.6916 249.086 31.1271C248.59 31.5626 248.282 32.1483 248.162 32.8842Z"
       fill="#000000"
       id="path28" />
    <path
       d="M122.855 15.9336L127.16 0.237793H131.846L136.152 15.9336H133.371L132.429 12.346H126.577L125.635 15.9336H122.855ZM127.205 9.87951H131.802L129.694 1.91949H129.313L127.205 9.87951Z"
       fill="#000000"
       id="path30" />
    <path
       d="M138.729 15.9336L137.002 4.85685H139.558L140.747 14.2071H141.128L142.81 4.85685H146.935L148.617 14.2071H148.998L150.187 4.85685H152.743L151.016 15.9336H146.733L145.074 6.58339H144.693L143.011 15.9336H138.729Z"
       fill="#000000"
       id="path32" />
    <path
       d="M158.284 16.2475C157.507 16.2475 156.804 16.113 156.176 15.8439C155.549 15.5599 155.048 15.1563 154.674 14.6331C154.315 14.1099 154.136 13.4671 154.136 12.7048C154.136 11.9573 154.315 11.3295 154.674 10.8213C155.048 10.313 155.556 9.93183 156.199 9.67771C156.842 9.40864 157.574 9.2741 158.396 9.2741H161.603V8.60142C161.603 8.01844 161.423 7.54756 161.064 7.1888C160.706 6.81509 160.145 6.62824 159.383 6.62824C158.635 6.62824 158.067 6.80762 157.679 7.16638C157.305 7.51019 157.058 7.95864 156.939 8.51173L154.562 7.72694C154.741 7.14396 155.025 6.61329 155.414 6.13494C155.818 5.65659 156.348 5.2754 157.006 4.99138C157.664 4.69242 158.471 4.54293 159.428 4.54293C160.878 4.54293 162.014 4.90917 162.836 5.64164C163.673 6.35916 164.092 7.40555 164.092 8.78081V13.1308C164.092 13.5792 164.301 13.8035 164.719 13.8035H165.661V15.9336H163.845C163.307 15.9336 162.866 15.7991 162.522 15.53C162.178 15.2609 162.006 14.8947 162.006 14.4313V14.3865H161.625C161.535 14.5957 161.378 14.8499 161.154 15.1488C160.93 15.4478 160.586 15.7094 160.123 15.9336C159.674 16.1429 159.061 16.2475 158.284 16.2475ZM158.71 14.1398C159.562 14.1398 160.257 13.9006 160.795 13.4223C161.334 12.929 161.603 12.2713 161.603 11.4491V11.2249H158.553C158 11.2249 157.552 11.3445 157.208 11.5836C156.864 11.8228 156.692 12.1741 156.692 12.6375C156.692 13.0859 156.871 13.4522 157.23 13.7362C157.589 14.0053 158.082 14.1398 158.71 14.1398Z"
       fill="#000000"
       id="path34" />
    <path
       d="M167.346 15.9336V0.237793H169.925V9.04988H170.306L174.297 4.85685H177.683L172.324 10.2159L177.862 15.9336H174.521L170.306 11.4267H169.925V15.9336H167.346Z"
       fill="#000000"
       id="path36" />
    <path
       d="M183.812 16.2475C182.705 16.2475 181.726 16.0158 180.874 15.5524C180.037 15.0741 179.379 14.4089 178.901 13.5568C178.438 12.6898 178.206 11.6808 178.206 10.5298V10.2607C178.206 9.09472 178.438 8.0857 178.901 7.23365C179.364 6.38159 180.015 5.72386 180.852 5.26046C181.689 4.78211 182.653 4.54293 183.744 4.54293C184.821 4.54293 185.762 4.78211 186.57 5.26046C187.377 5.72386 188.005 6.38159 188.453 7.23365C188.901 8.0857 189.126 9.07977 189.126 10.2159V11.1352H180.807C180.837 12.0022 181.143 12.6973 181.726 13.2205C182.309 13.7437 183.027 14.0053 183.879 14.0053C184.716 14.0053 185.336 13.8259 185.74 13.4671C186.143 13.0934 186.45 12.6749 186.659 12.2115L188.789 13.3102C188.58 13.7138 188.274 14.1473 187.87 14.6107C187.481 15.0591 186.958 15.4478 186.3 15.7767C185.643 16.0906 184.813 16.2475 183.812 16.2475ZM180.829 9.18441H186.502C186.442 8.45194 186.158 7.86895 185.65 7.43545C185.157 7.00195 184.514 6.78519 183.722 6.78519C182.9 6.78519 182.242 7.00195 181.749 7.43545C181.255 7.86895 180.949 8.45194 180.829 9.18441Z"
       fill="#000000"
       id="path38" />
    <path
       d="M191.324 15.9336V4.85685H193.858V6.40401H194.239C194.434 5.98545 194.785 5.58932 195.293 5.21561C195.801 4.8419 196.571 4.65505 197.603 4.65505C198.455 4.65505 199.21 4.84938 199.867 5.23803C200.525 5.62669 201.033 6.16483 201.392 6.85246C201.766 7.54009 201.953 8.35478 201.953 9.29653V15.9336H199.374V9.49833C199.374 8.60143 199.15 7.93622 198.701 7.50272C198.268 7.05427 197.648 6.83004 196.84 6.83004C195.928 6.83004 195.211 7.13648 194.688 7.74937C194.165 8.3473 193.903 9.20683 193.903 10.328V15.9336H191.324Z"
       fill="#000000"
       id="path40" />
  </g>
  <defs
     id="defs47">
    <clipPath
       id="clip0_1609_2613">
      <rect
         width="256.969"
         height="39.9175"
         fill="#000000"
         id="rect44" />
    </clipPath>
  </defs>
</svg>
